<svg xmlns="http://www.w3.org/2000/svg">
  <symbol id="logo" viewBox="0 0 160 80">
    <ellipse cx="64.0209" cy="56.7165" rx="1.8125" ry="1.79104" fill="#2DAFD7" fill-opacity="0.3"/>
    <ellipse cx="64.0209" cy="50.7462" rx="1.8125" ry="1.79104" fill="#2DAFD7" fill-opacity="0.3"/>
    <ellipse cx="64.0209" cy="44.7762" rx="1.8125" ry="1.79104" fill="#2DAFD7" fill-opacity="0.3"/>
    <ellipse cx="64.0209" cy="38.8061" rx="1.8125" ry="1.79104" fill="#2DAFD7" fill-opacity="0.3"/>
    <ellipse cx="64.0209" cy="32.8357" rx="1.8125" ry="1.79104" fill="#2DAFD7" fill-opacity="0.3"/>
    <ellipse cx="64.0209" cy="26.8656" rx="1.8125" ry="1.79104" fill="#2DAFD7" fill-opacity="0.3"/>
    <ellipse cx="64.0209" cy="20.8955" rx="1.8125" ry="1.79104" fill="#2DAFD7" fill-opacity="0.3"/>
    <ellipse cx="58.5833" cy="20.2985" rx="1.20833" ry="1.19403" fill="#2DAFD7" fill-opacity="0.3"/>
    <ellipse cx="52.5417" cy="20.2985" rx="1.20833" ry="1.19403" fill="#2DAFD7" fill-opacity="0.3"/>
    <ellipse cx="47.1042" cy="19.7015" rx="0.604167" ry="0.597015" fill="#2DAFD7" fill-opacity="0.3"/>
    <ellipse cx="51.9375" cy="16.1195" rx="0.604167" ry="0.597015" fill="#2DAFD7" fill-opacity="0.3"/>
    <ellipse cx="99.0625" cy="16.1195" rx="0.604167" ry="0.597015" fill="#2DAFD7" fill-opacity="0.3"/>
    <ellipse cx="103.896" cy="19.7015" rx="0.604167" ry="0.597015" fill="#2DAFD7" fill-opacity="0.3"/>
    <ellipse cx="47.1042" cy="31.6417" rx="0.604167" ry="0.597015" fill="#2DAFD7" fill-opacity="0.3"/>
    <ellipse cx="42.2708" cy="31.6417" rx="0.604167" ry="0.597015" fill="#2DAFD7" fill-opacity="0.3"/>
    <ellipse cx="37.4375" cy="31.6417" rx="0.604167" ry="0.597015" fill="#2DAFD7" fill-opacity="0.3"/>
    <ellipse cx="103.896" cy="31.6417" rx="0.604167" ry="0.597015" fill="#2DAFD7" fill-opacity="0.3"/>
    <ellipse cx="108.729" cy="31.6417" rx="0.604167" ry="0.597015" fill="#2DAFD7" fill-opacity="0.3"/>
    <ellipse cx="113.563" cy="31.6417" rx="0.604167" ry="0.597015" fill="#2DAFD7" fill-opacity="0.3"/>
    <ellipse cx="47.1042" cy="43.5821" rx="0.604167" ry="0.597015" fill="#2DAFD7" fill-opacity="0.3"/>
    <ellipse cx="42.2708" cy="43.5821" rx="0.604167" ry="0.597015" fill="#2DAFD7" fill-opacity="0.3"/>
    <ellipse cx="37.4375" cy="43.5821" rx="0.604167" ry="0.597015" fill="#2DAFD7" fill-opacity="0.3"/>
    <ellipse cx="32.6042" cy="43.5821" rx="0.604167" ry="0.597015" fill="#2DAFD7" fill-opacity="0.3"/>
    <ellipse cx="103.896" cy="43.5821" rx="0.604167" ry="0.597015" fill="#2DAFD7" fill-opacity="0.3"/>
    <ellipse cx="108.729" cy="43.5821" rx="0.604167" ry="0.597015" fill="#2DAFD7" fill-opacity="0.3"/>
    <ellipse cx="113.563" cy="43.5821" rx="0.604167" ry="0.597015" fill="#2DAFD7" fill-opacity="0.3"/>
    <ellipse cx="118.396" cy="43.5821" rx="0.604167" ry="0.597015" fill="#2DAFD7" fill-opacity="0.3"/>
    <ellipse cx="47.1042" cy="55.5224" rx="0.604167" ry="0.597015" fill="#2DAFD7" fill-opacity="0.3"/>
    <ellipse cx="42.2708" cy="55.5224" rx="0.604167" ry="0.597015" fill="#2DAFD7" fill-opacity="0.3"/>
    <ellipse cx="76.1042" cy="73.4328" rx="0.604167" ry="0.597015" fill="#2DAFD7" fill-opacity="0.3"/>
    <ellipse cx="76.1042" cy="73.4328" rx="0.604167" ry="0.597015" fill="#2DAFD7" fill-opacity="0.3"/>
    <ellipse cx="68.8542" cy="73.4328" rx="0.604167" ry="0.597015" fill="#2DAFD7" fill-opacity="0.3"/>
    <ellipse cx="68.8542" cy="73.4328" rx="0.604167" ry="0.597015" fill="#2DAFD7" fill-opacity="0.3"/>
    <ellipse cx="62.8125" cy="73.4328" rx="0.604167" ry="0.597015" fill="#2DAFD7" fill-opacity="0.3"/>
    <ellipse cx="57.9792" cy="73.4328" rx="0.604167" ry="0.597015" fill="#2DAFD7" fill-opacity="0.3"/>
    <ellipse cx="103.896" cy="55.5224" rx="0.604167" ry="0.597015" fill="#2DAFD7" fill-opacity="0.3"/>
    <ellipse cx="108.729" cy="55.5224" rx="0.604167" ry="0.597015" fill="#2DAFD7" fill-opacity="0.3"/>
    <ellipse cx="99.0625" cy="55.5224" rx="0.604167" ry="0.597015" fill="#2DAFD7" fill-opacity="0.3"/>
    <ellipse cx="51.9375" cy="55.5224" rx="0.604167" ry="0.597015" fill="#2DAFD7" fill-opacity="0.3"/>
    <ellipse cx="82.1458" cy="73.4328" rx="0.604167" ry="0.597015" fill="#2DAFD7" fill-opacity="0.3"/>
    <ellipse cx="82.1458" cy="73.4328" rx="0.604167" ry="0.597015" fill="#2DAFD7" fill-opacity="0.3"/>
    <ellipse cx="88.1875" cy="73.4328" rx="0.604167" ry="0.597015" fill="#2DAFD7" fill-opacity="0.3"/>
    <ellipse cx="94.2292" cy="73.4328" rx="0.604167" ry="0.597015" fill="#2DAFD7" fill-opacity="0.3"/>
    <ellipse cx="82.1458" cy="79.403" rx="0.604167" ry="0.597015" fill="#2DAFD7" fill-opacity="0.3"/>
    <ellipse cx="82.1458" cy="79.403" rx="0.604167" ry="0.597015" fill="#2DAFD7" fill-opacity="0.3"/>
    <ellipse cx="82.1458" cy="67.4626" rx="0.604167" ry="0.597015" fill="#2DAFD7" fill-opacity="0.3"/>
    <ellipse cx="82.1458" cy="10.1493" rx="0.604167" ry="0.597015" fill="#2DAFD7" fill-opacity="0.3"/>
    <ellipse cx="82.1458" cy="5.37314" rx="0.604167" ry="0.597015" fill="#2DAFD7" fill-opacity="0.3"/>
    <ellipse cx="82.1458" cy="0.597015" rx="0.604167" ry="0.597015" fill="#2DAFD7" fill-opacity="0.3"/>
    <ellipse cx="82.1458" cy="67.4626" rx="0.604167" ry="0.597015" fill="#2DAFD7" fill-opacity="0.3"/>
    <ellipse cx="82.1458" cy="10.1493" rx="0.604167" ry="0.597015" fill="#2DAFD7" fill-opacity="0.3"/>
    <ellipse cx="82.1458" cy="5.37314" rx="0.604167" ry="0.597015" fill="#2DAFD7" fill-opacity="0.3"/>
    <ellipse cx="82.1458" cy="0.597015" rx="0.604167" ry="0.597015" fill="#2DAFD7" fill-opacity="0.3"/>
    <ellipse cx="88.1875" cy="67.4626" rx="0.604167" ry="0.597015" fill="#2DAFD7" fill-opacity="0.3"/>
    <ellipse cx="88.1875" cy="10.1493" rx="0.604167" ry="0.597015" fill="#2DAFD7" fill-opacity="0.3"/>
    <ellipse cx="88.1875" cy="5.37314" rx="0.604167" ry="0.597015" fill="#2DAFD7" fill-opacity="0.3"/>
    <ellipse cx="94.2292" cy="67.4626" rx="0.604167" ry="0.597015" fill="#2DAFD7" fill-opacity="0.3"/>
    <ellipse cx="94.2292" cy="10.1493" rx="0.604167" ry="0.597015" fill="#2DAFD7" fill-opacity="0.3"/>
    <ellipse cx="94.2292" cy="5.37314" rx="0.604167" ry="0.597015" fill="#2DAFD7" fill-opacity="0.3"/>
    <ellipse cx="99.0625" cy="67.4626" rx="0.604167" ry="0.597015" fill="#2DAFD7" fill-opacity="0.3"/>
    <ellipse cx="99.0625" cy="10.1493" rx="0.604167" ry="0.597015" fill="#2DAFD7" fill-opacity="0.3"/>
    <ellipse cx="99.0625" cy="67.4626" rx="0.604167" ry="0.597015" fill="#2DAFD7" fill-opacity="0.3"/>
    <ellipse cx="99.0625" cy="10.1493" rx="0.604167" ry="0.597015" fill="#2DAFD7" fill-opacity="0.3"/>
    <ellipse cx="47.1042" cy="25.6716" rx="0.604167" ry="0.597015" fill="#2DAFD7" fill-opacity="0.3"/>
    <ellipse cx="42.2708" cy="25.6716" rx="0.604167" ry="0.597015" fill="#2DAFD7" fill-opacity="0.3"/>
    <ellipse cx="103.896" cy="25.6716" rx="0.604167" ry="0.597015" fill="#2DAFD7" fill-opacity="0.3"/>
    <ellipse cx="108.729" cy="25.6716" rx="0.604167" ry="0.597015" fill="#2DAFD7" fill-opacity="0.3"/>
    <ellipse cx="47.1042" cy="37.612" rx="0.604167" ry="0.597015" fill="#2DAFD7" fill-opacity="0.3"/>
    <ellipse cx="42.2708" cy="37.612" rx="0.604167" ry="0.597015" fill="#2DAFD7" fill-opacity="0.3"/>
    <ellipse cx="37.4375" cy="37.612" rx="0.604167" ry="0.597015" fill="#2DAFD7" fill-opacity="0.3"/>
    <ellipse cx="32.6042" cy="37.612" rx="0.604167" ry="0.597015" fill="#2DAFD7" fill-opacity="0.3"/>
    <ellipse cx="103.896" cy="37.612" rx="0.604167" ry="0.597015" fill="#2DAFD7" fill-opacity="0.3"/>
    <ellipse cx="108.729" cy="37.612" rx="0.604167" ry="0.597015" fill="#2DAFD7" fill-opacity="0.3"/>
    <ellipse cx="113.563" cy="37.612" rx="0.604167" ry="0.597015" fill="#2DAFD7" fill-opacity="0.3"/>
    <ellipse cx="118.396" cy="37.612" rx="0.604167" ry="0.597015" fill="#2DAFD7" fill-opacity="0.3"/>
    <ellipse cx="47.1042" cy="49.5522" rx="0.604167" ry="0.597015" fill="#2DAFD7" fill-opacity="0.3"/>
    <ellipse cx="42.2708" cy="49.5522" rx="0.604167" ry="0.597015" fill="#2DAFD7" fill-opacity="0.3"/>
    <ellipse cx="37.4375" cy="49.5522" rx="0.604167" ry="0.597015" fill="#2DAFD7" fill-opacity="0.3"/>
    <ellipse cx="76.1042" cy="67.4626" rx="0.604167" ry="0.597015" fill="#2DAFD7" fill-opacity="0.3"/>
    <ellipse cx="76.1042" cy="10.1493" rx="0.604167" ry="0.597015" fill="#2DAFD7" fill-opacity="0.3"/>
    <ellipse cx="76.1042" cy="5.37314" rx="0.604167" ry="0.597015" fill="#2DAFD7" fill-opacity="0.3"/>
    <ellipse cx="76.1042" cy="0.597015" rx="0.604167" ry="0.597015" fill="#2DAFD7" fill-opacity="0.3"/>
    <ellipse cx="76.1042" cy="67.4626" rx="0.604167" ry="0.597015" fill="#2DAFD7" fill-opacity="0.3"/>
    <ellipse cx="76.1042" cy="10.1493" rx="0.604167" ry="0.597015" fill="#2DAFD7" fill-opacity="0.3"/>
    <ellipse cx="76.1042" cy="5.37314" rx="0.604167" ry="0.597015" fill="#2DAFD7" fill-opacity="0.3"/>
    <ellipse cx="76.1042" cy="0.597015" rx="0.604167" ry="0.597015" fill="#2DAFD7" fill-opacity="0.3"/>
    <ellipse cx="68.8542" cy="67.4626" rx="0.604167" ry="0.597015" fill="#2DAFD7" fill-opacity="0.3"/>
    <ellipse cx="70.0625" cy="10.1493" rx="0.604167" ry="0.597015" fill="#2DAFD7" fill-opacity="0.3"/>
    <ellipse cx="70.0625" cy="5.37314" rx="0.604167" ry="0.597015" fill="#2DAFD7" fill-opacity="0.3"/>
    <ellipse cx="70.0625" cy="0.597015" rx="0.604167" ry="0.597015" fill="#2DAFD7" fill-opacity="0.3"/>
    <ellipse cx="68.8542" cy="67.4626" rx="0.604167" ry="0.597015" fill="#2DAFD7" fill-opacity="0.3"/>
    <ellipse cx="70.0625" cy="10.1493" rx="0.604167" ry="0.597015" fill="#2DAFD7" fill-opacity="0.3"/>
    <ellipse cx="70.0625" cy="5.37314" rx="0.604167" ry="0.597015" fill="#2DAFD7" fill-opacity="0.3"/>
    <ellipse cx="70.0625" cy="0.597015" rx="0.604167" ry="0.597015" fill="#2DAFD7" fill-opacity="0.3"/>
    <ellipse cx="62.8125" cy="67.4626" rx="0.604167" ry="0.597015" fill="#2DAFD7" fill-opacity="0.3"/>
    <ellipse cx="62.8125" cy="10.1493" rx="0.604167" ry="0.597015" fill="#2DAFD7" fill-opacity="0.3"/>
    <ellipse cx="62.8125" cy="5.37314" rx="0.604167" ry="0.597015" fill="#2DAFD7" fill-opacity="0.3"/>
    <ellipse cx="57.9792" cy="67.4626" rx="0.604167" ry="0.597015" fill="#2DAFD7" fill-opacity="0.3"/>
    <ellipse cx="57.9792" cy="10.1493" rx="0.604167" ry="0.597015" fill="#2DAFD7" fill-opacity="0.3"/>
    <ellipse cx="57.9792" cy="5.37314" rx="0.604167" ry="0.597015" fill="#2DAFD7" fill-opacity="0.3"/>
    <ellipse cx="51.9375" cy="67.4626" rx="0.604167" ry="0.597015" fill="#2DAFD7" fill-opacity="0.3"/>
    <ellipse cx="51.9375" cy="10.1493" rx="0.604167" ry="0.597015" fill="#2DAFD7" fill-opacity="0.3"/>
    <ellipse cx="51.9375" cy="67.4626" rx="0.604167" ry="0.597015" fill="#2DAFD7" fill-opacity="0.3"/>
    <ellipse cx="51.9375" cy="10.1493" rx="0.604167" ry="0.597015" fill="#2DAFD7" fill-opacity="0.3"/>
    <ellipse cx="103.896" cy="49.5522" rx="0.604167" ry="0.597015" fill="#2DAFD7" fill-opacity="0.3"/>
    <ellipse cx="108.729" cy="49.5522" rx="0.604167" ry="0.597015" fill="#2DAFD7" fill-opacity="0.3"/>
    <ellipse cx="113.563" cy="49.5522" rx="0.604167" ry="0.597015" fill="#2DAFD7" fill-opacity="0.3"/>
    <ellipse cx="47.1042" cy="61.4925" rx="0.604167" ry="0.597015" fill="#2DAFD7" fill-opacity="0.3"/>
    <ellipse cx="76.1042" cy="79.403" rx="0.604167" ry="0.597015" fill="#2DAFD7" fill-opacity="0.3"/>
    <ellipse cx="76.1042" cy="79.403" rx="0.604167" ry="0.597015" fill="#2DAFD7" fill-opacity="0.3"/>
    <ellipse cx="68.8542" cy="79.403" rx="0.604167" ry="0.597015" fill="#2DAFD7" fill-opacity="0.3"/>
    <ellipse cx="68.8542" cy="79.403" rx="0.604167" ry="0.597015" fill="#2DAFD7" fill-opacity="0.3"/>
    <ellipse cx="103.896" cy="61.4925" rx="0.604167" ry="0.597015" fill="#2DAFD7" fill-opacity="0.3"/>
    <ellipse cx="99.0625" cy="61.4925" rx="0.604167" ry="0.597015" fill="#2DAFD7" fill-opacity="0.3"/>
    <ellipse cx="51.9375" cy="61.4925" rx="0.604167" ry="0.597015" fill="#2DAFD7" fill-opacity="0.3"/>
    <ellipse cx="98.4583" cy="20.2985" rx="1.20833" ry="1.19403" fill="#2DAFD7" fill-opacity="0.3"/>
    <ellipse cx="93.625" cy="20.2985" rx="1.20833" ry="1.19403" fill="#2DAFD7" fill-opacity="0.3"/>
    <ellipse cx="58.5833" cy="32.2387" rx="1.20833" ry="1.19403" fill="#2DAFD7" fill-opacity="0.3"/>
    <ellipse cx="52.5417" cy="32.2387" rx="1.20833" ry="1.19403" fill="#2DAFD7" fill-opacity="0.3"/>
    <ellipse cx="98.4583" cy="32.2387" rx="1.20833" ry="1.19403" fill="#2DAFD7" fill-opacity="0.3"/>
    <ellipse cx="93.625" cy="32.2387" rx="1.20833" ry="1.19403" fill="#2DAFD7" fill-opacity="0.3"/>
    <ellipse cx="58.5833" cy="44.1791" rx="1.20833" ry="1.19403" fill="#2DAFD7" fill-opacity="0.3"/>
    <ellipse cx="52.5417" cy="44.1791" rx="1.20833" ry="1.19403" fill="#2DAFD7" fill-opacity="0.3"/>
    <ellipse cx="98.4583" cy="44.1791" rx="1.20833" ry="1.19403" fill="#2DAFD7" fill-opacity="0.3"/>
    <ellipse cx="93.625" cy="44.1791" rx="1.20833" ry="1.19403" fill="#2DAFD7" fill-opacity="0.3"/>
    <ellipse cx="58.5833" cy="56.1194" rx="1.20833" ry="1.19403" fill="#2DAFD7" fill-opacity="0.3"/>
    <ellipse cx="93.625" cy="56.1194" rx="1.20833" ry="1.19403" fill="#2DAFD7" fill-opacity="0.3"/>
    <ellipse cx="58.5833" cy="26.2686" rx="1.20833" ry="1.19403" fill="#2DAFD7" fill-opacity="0.3"/>
    <ellipse cx="52.5417" cy="26.2686" rx="1.20833" ry="1.19403" fill="#2DAFD7" fill-opacity="0.3"/>
    <ellipse cx="98.4583" cy="26.2686" rx="1.20833" ry="1.19403" fill="#2DAFD7" fill-opacity="0.3"/>
    <ellipse cx="93.625" cy="26.2686" rx="1.20833" ry="1.19403" fill="#2DAFD7" fill-opacity="0.3"/>
    <ellipse cx="58.5833" cy="38.209" rx="1.20833" ry="1.19403" fill="#2DAFD7" fill-opacity="0.3"/>
    <ellipse cx="52.5417" cy="38.209" rx="1.20833" ry="1.19403" fill="#2DAFD7" fill-opacity="0.3"/>
    <ellipse cx="98.4583" cy="38.209" rx="1.20833" ry="1.19403" fill="#2DAFD7" fill-opacity="0.3"/>
    <ellipse cx="93.625" cy="38.209" rx="1.20833" ry="1.19403" fill="#2DAFD7" fill-opacity="0.3"/>
    <ellipse cx="58.5833" cy="50.1492" rx="1.20833" ry="1.19403" fill="#2DAFD7" fill-opacity="0.3"/>
    <ellipse cx="52.5417" cy="50.1492" rx="1.20833" ry="1.19403" fill="#2DAFD7" fill-opacity="0.3"/>
    <ellipse cx="98.4583" cy="50.1492" rx="1.20833" ry="1.19403" fill="#2DAFD7" fill-opacity="0.3"/>
    <ellipse cx="93.625" cy="50.1492" rx="1.20833" ry="1.19403" fill="#2DAFD7" fill-opacity="0.3"/>
    <ellipse cx="58.5833" cy="62.0895" rx="1.20833" ry="1.19403" fill="#2DAFD7" fill-opacity="0.3"/>
    <ellipse cx="58.5833" cy="15.5224" rx="1.20833" ry="1.19403" fill="#2DAFD7" fill-opacity="0.3"/>
    <ellipse cx="93.625" cy="62.0895" rx="1.20833" ry="1.19403" fill="#2DAFD7" fill-opacity="0.3"/>
    <ellipse cx="93.625" cy="15.5224" rx="1.20833" ry="1.19403" fill="#2DAFD7" fill-opacity="0.3"/>
    <ellipse cx="69.4583" cy="62.0895" rx="1.20833" ry="1.19403" fill="#2DAFD7" fill-opacity="0.3"/>
    <ellipse cx="69.4583" cy="15.5224" rx="1.20833" ry="1.19403" fill="#2DAFD7" fill-opacity="0.3"/>
    <ellipse cx="81.5417" cy="62.0895" rx="1.20833" ry="1.19403" fill="#2DAFD7" fill-opacity="0.3"/>
    <ellipse cx="81.5417" cy="15.5224" rx="1.20833" ry="1.19403" fill="#2DAFD7" fill-opacity="0.3"/>
    <ellipse cx="63.4167" cy="62.0895" rx="1.20833" ry="1.19403" fill="#2DAFD7" fill-opacity="0.3"/>
    <ellipse cx="63.4167" cy="15.5224" rx="1.20833" ry="1.19403" fill="#2DAFD7" fill-opacity="0.3"/>
    <ellipse cx="75.5" cy="62.0895" rx="1.20833" ry="1.19403" fill="#2DAFD7" fill-opacity="0.3"/>
    <ellipse cx="75.5" cy="15.5224" rx="1.20833" ry="1.19403" fill="#2DAFD7" fill-opacity="0.3"/>
    <ellipse cx="87.5833" cy="62.0895" rx="1.20833" ry="1.19403" fill="#2DAFD7" fill-opacity="0.3"/>
    <ellipse cx="87.5833" cy="15.5224" rx="1.20833" ry="1.19403" fill="#2DAFD7" fill-opacity="0.3"/>
    <ellipse cx="70.0625" cy="56.7165" rx="1.8125" ry="1.79104" fill="#2DAFD7" fill-opacity="0.3"/>
    <ellipse cx="70.0625" cy="50.7462" rx="1.8125" ry="1.79104" fill="#2DAFD7" fill-opacity="0.3"/>
    <ellipse cx="70.0625" cy="44.7762" rx="1.8125" ry="1.79104" fill="#2DAFD7" fill-opacity="0.3"/>
    <ellipse cx="70.0625" cy="38.8061" rx="1.8125" ry="1.79104" fill="#2DAFD7" fill-opacity="0.3"/>
    <ellipse cx="70.0625" cy="32.8357" rx="1.8125" ry="1.79104" fill="#2DAFD7" fill-opacity="0.3"/>
    <ellipse cx="70.0625" cy="26.8656" rx="1.8125" ry="1.79104" fill="#2DAFD7" fill-opacity="0.3"/>
    <ellipse cx="70.0625" cy="20.8955" rx="1.8125" ry="1.79104" fill="#2DAFD7" fill-opacity="0.3"/>
    <ellipse cx="76.1041" cy="56.7165" rx="1.8125" ry="1.79104" fill="#2DAFD7" fill-opacity="0.3"/>
    <ellipse cx="76.1041" cy="50.7462" rx="1.8125" ry="1.79104" fill="#2DAFD7" fill-opacity="0.3"/>
    <ellipse cx="76.1041" cy="44.7762" rx="1.8125" ry="1.79104" fill="#2DAFD7" fill-opacity="0.3"/>
    <ellipse cx="76.1041" cy="38.8061" rx="1.8125" ry="1.79104" fill="#2DAFD7" fill-opacity="0.3"/>
    <ellipse cx="76.1041" cy="32.8357" rx="1.8125" ry="1.79104" fill="#2DAFD7" fill-opacity="0.3"/>
    <ellipse cx="76.1041" cy="26.8656" rx="1.8125" ry="1.79104" fill="#2DAFD7" fill-opacity="0.3"/>
    <ellipse cx="76.1041" cy="20.8955" rx="1.8125" ry="1.79104" fill="#2DAFD7" fill-opacity="0.3"/>
    <ellipse cx="82.1459" cy="56.7165" rx="1.8125" ry="1.79104" fill="#2DAFD7" fill-opacity="0.3"/>
    <ellipse cx="82.1459" cy="50.7462" rx="1.8125" ry="1.79104" fill="#2DAFD7" fill-opacity="0.3"/>
    <ellipse cx="82.1459" cy="44.7762" rx="1.8125" ry="1.79104" fill="#2DAFD7" fill-opacity="0.3"/>
    <ellipse cx="82.1459" cy="38.8061" rx="1.8125" ry="1.79104" fill="#2DAFD7" fill-opacity="0.3"/>
    <ellipse cx="82.1459" cy="32.8357" rx="1.8125" ry="1.79104" fill="#2DAFD7" fill-opacity="0.3"/>
    <ellipse cx="82.1459" cy="26.8656" rx="1.8125" ry="1.79104" fill="#2DAFD7" fill-opacity="0.3"/>
    <ellipse cx="82.1459" cy="20.8955" rx="1.8125" ry="1.79104" fill="#2DAFD7" fill-opacity="0.3"/>
    <ellipse cx="88.1875" cy="56.7165" rx="1.8125" ry="1.79104" fill="#2DAFD7" fill-opacity="0.3"/>
    <ellipse cx="88.1875" cy="50.7462" rx="1.8125" ry="1.79104" fill="#2DAFD7" fill-opacity="0.3"/>
    <ellipse cx="88.1875" cy="44.7762" rx="1.8125" ry="1.79104" fill="#2DAFD7" fill-opacity="0.3"/>
    <ellipse cx="88.1875" cy="38.8061" rx="1.8125" ry="1.79104" fill="#2DAFD7" fill-opacity="0.3"/>
    <ellipse cx="88.1875" cy="32.8357" rx="1.8125" ry="1.79104" fill="#2DAFD7" fill-opacity="0.3"/>
    <ellipse cx="88.1875" cy="26.8656" rx="1.8125" ry="1.79104" fill="#2DAFD7" fill-opacity="0.3"/>
    <ellipse cx="88.1875" cy="20.8955" rx="1.8125" ry="1.79104" fill="#2DAFD7" fill-opacity="0.3"/>
    <path d="M5.952 48C5.776 48 5.624 47.944 5.496 47.832C5.384 47.72 5.328 47.576 5.328 47.4V35.112H1.104C0.928 35.112 0.776 35.056 0.648 34.944C0.536 34.832 0.48 34.688 0.48 34.512V31.824C0.48 31.648 0.536 31.504 0.648 31.392C0.776 31.264 0.928 31.2 1.104 31.2H14.136C14.312 31.2 14.456 31.264 14.568 31.392C14.696 31.504 14.76 31.648 14.76 31.824V34.512C14.76 34.688 14.696 34.832 14.568 34.944C14.456 35.056 14.312 35.112 14.136 35.112H9.912V47.4C9.912 47.576 9.848 47.72 9.72 47.832C9.608 47.944 9.464 48 9.288 48H5.952ZM23.592 48.24C21.32 48.24 19.528 47.688 18.216 46.584C16.904 45.48 16.208 43.856 16.128 41.712C16.112 41.264 16.104 40.576 16.104 39.648C16.104 38.72 16.112 38.024 16.128 37.56C16.192 35.448 16.888 33.824 18.216 32.688C19.56 31.536 21.352 30.96 23.592 30.96C25.816 30.96 27.592 31.536 28.92 32.688C30.264 33.824 30.968 35.448 31.032 37.56C31.064 38.488 31.08 39.184 31.08 39.648C31.08 40.128 31.064 40.816 31.032 41.712C30.952 43.856 30.256 45.48 28.944 46.584C27.648 47.688 25.864 48.24 23.592 48.24ZM23.592 44.64C24.424 44.64 25.088 44.392 25.584 43.896C26.08 43.384 26.344 42.608 26.376 41.568C26.408 40.64 26.424 39.976 26.424 39.576C26.424 39.176 26.408 38.528 26.376 37.632C26.344 36.592 26.08 35.824 25.584 35.328C25.088 34.816 24.424 34.56 23.592 34.56C22.744 34.56 22.072 34.816 21.576 35.328C21.08 35.824 20.816 36.592 20.784 37.632C20.768 38.08 20.76 38.728 20.76 39.576C20.76 40.44 20.768 41.104 20.784 41.568C20.816 42.608 21.08 43.384 21.576 43.896C22.072 44.392 22.744 44.64 23.592 44.64ZM34.3883 48C34.2283 48 34.0843 47.944 33.9563 47.832C33.8443 47.704 33.7883 47.56 33.7883 47.4V31.824C33.7883 31.648 33.8443 31.504 33.9563 31.392C34.0683 31.264 34.2123 31.2 34.3883 31.2H41.1803C43.2603 31.2 44.8923 31.672 46.0763 32.616C47.2603 33.56 47.8523 34.944 47.8523 36.768C47.8523 38.592 47.2603 39.96 46.0763 40.872C44.8923 41.768 43.2603 42.216 41.1803 42.216H38.4443V47.4C38.4443 47.56 38.3883 47.704 38.2763 47.832C38.1643 47.944 38.0203 48 37.8443 48H34.3883ZM41.0603 38.784C41.7163 38.784 42.2283 38.616 42.5963 38.28C42.9803 37.928 43.1723 37.416 43.1723 36.744C43.1723 36.12 42.9963 35.616 42.6443 35.232C42.3083 34.848 41.7803 34.656 41.0603 34.656H38.3723V38.784H41.0603ZM60.9608 48.24C59.4088 48.24 58.0888 48.016 57.0008 47.568C55.9128 47.12 55.0888 46.528 54.5288 45.792C53.9688 45.056 53.6728 44.256 53.6408 43.392C53.6408 43.248 53.6888 43.128 53.7848 43.032C53.8968 42.936 54.0248 42.888 54.1688 42.888H57.3608C57.5528 42.888 57.7048 42.92 57.8168 42.984C57.9448 43.048 58.0808 43.16 58.2248 43.32C58.4328 43.704 58.7528 44.024 59.1848 44.28C59.6328 44.52 60.2248 44.64 60.9608 44.64C61.8248 44.64 62.4888 44.512 62.9528 44.256C63.4168 43.984 63.6488 43.616 63.6488 43.152C63.6488 42.816 63.5288 42.544 63.2888 42.336C63.0488 42.112 62.6648 41.92 62.1368 41.76C61.6088 41.584 60.8488 41.392 59.8568 41.184C57.9208 40.8 56.4728 40.216 55.5128 39.432C54.5528 38.648 54.0728 37.528 54.0728 36.072C54.0728 35.08 54.3448 34.2 54.8888 33.432C55.4488 32.648 56.2328 32.04 57.2408 31.608C58.2648 31.176 59.4488 30.96 60.7928 30.96C62.2008 30.96 63.4168 31.208 64.4408 31.704C65.4808 32.184 66.2728 32.792 66.8168 33.528C67.3768 34.248 67.6728 34.96 67.7048 35.664C67.7048 35.808 67.6568 35.936 67.5608 36.048C67.4648 36.144 67.3448 36.192 67.2008 36.192H63.8408C63.4888 36.192 63.2168 36.048 63.0248 35.76C62.9288 35.424 62.6808 35.144 62.2808 34.92C61.8808 34.68 61.3848 34.56 60.7928 34.56C60.1208 34.56 59.6008 34.68 59.2328 34.92C58.8648 35.16 58.6808 35.512 58.6808 35.976C58.6808 36.44 58.9208 36.808 59.4008 37.08C59.8808 37.336 60.7768 37.6 62.0888 37.872C63.5928 38.144 64.7848 38.488 65.6648 38.904C66.5608 39.304 67.2168 39.832 67.6328 40.488C68.0648 41.128 68.2808 41.944 68.2808 42.936C68.2808 44.024 67.9688 44.968 67.3448 45.768C66.7208 46.568 65.8568 47.184 64.7528 47.616C63.6488 48.032 62.3848 48.24 60.9608 48.24ZM71.1851 48C71.0251 48 70.8811 47.944 70.7531 47.832C70.6411 47.704 70.5851 47.56 70.5851 47.4V31.8C70.5851 31.624 70.6411 31.48 70.7531 31.368C70.8811 31.256 71.0251 31.2 71.1851 31.2H74.6171C74.7931 31.2 74.9371 31.256 75.0491 31.368C75.1611 31.48 75.2171 31.624 75.2171 31.8V47.4C75.2171 47.56 75.1611 47.704 75.0491 47.832C74.9371 47.944 74.7931 48 74.6171 48H71.1851ZM85.5156 48.24C83.1956 48.24 81.3796 47.68 80.0676 46.56C78.7556 45.424 78.0596 43.808 77.9796 41.712C77.9636 41.264 77.9556 40.536 77.9556 39.528C77.9556 38.52 77.9636 37.784 77.9796 37.32C78.0436 35.304 78.7396 33.744 80.0676 32.64C81.4116 31.52 83.2276 30.96 85.5156 30.96C87.0516 30.96 88.3876 31.208 89.5236 31.704C90.6756 32.2 91.5476 32.84 92.1396 33.624C92.7476 34.392 93.0676 35.184 93.0996 36C93.0996 36.144 93.0436 36.272 92.9316 36.384C92.8356 36.48 92.7156 36.528 92.5716 36.528H88.8516C88.6916 36.528 88.5636 36.504 88.4676 36.456C88.3876 36.392 88.3076 36.304 88.2276 36.192C88.0356 35.744 87.7236 35.36 87.2916 35.04C86.8756 34.72 86.2836 34.56 85.5156 34.56C83.6596 34.56 82.6996 35.52 82.6356 37.44C82.6196 37.888 82.6116 38.576 82.6116 39.504C82.6116 40.432 82.6196 41.128 82.6356 41.592C82.6996 43.624 83.6756 44.64 85.5636 44.64C86.4916 44.64 87.2276 44.408 87.7716 43.944C88.3156 43.48 88.5876 42.776 88.5876 41.832V41.4H86.4516C86.2756 41.4 86.1236 41.344 85.9956 41.232C85.8836 41.104 85.8276 40.952 85.8276 40.776V38.904C85.8276 38.728 85.8836 38.584 85.9956 38.472C86.1236 38.344 86.2756 38.28 86.4516 38.28H92.5476C92.7236 38.28 92.8676 38.344 92.9796 38.472C93.1076 38.584 93.1716 38.728 93.1716 38.904V41.688C93.1716 43.048 92.8516 44.224 92.2116 45.216C91.5876 46.192 90.6996 46.944 89.5476 47.472C88.3956 47.984 87.0516 48.24 85.5156 48.24ZM96.4273 48C96.2673 48 96.1233 47.944 95.9953 47.832C95.8833 47.704 95.8273 47.56 95.8273 47.4V31.824C95.8273 31.648 95.8833 31.504 95.9953 31.392C96.1073 31.264 96.2513 31.2 96.4273 31.2H99.1393C99.5073 31.2 99.7793 31.352 99.9553 31.656L105.619 40.608V31.824C105.619 31.648 105.675 31.504 105.787 31.392C105.899 31.264 106.043 31.2 106.219 31.2H109.267C109.443 31.2 109.587 31.264 109.699 31.392C109.811 31.504 109.867 31.648 109.867 31.824V47.376C109.867 47.552 109.811 47.704 109.699 47.832C109.587 47.944 109.443 48 109.267 48H106.555C106.187 48 105.915 47.848 105.739 47.544L100.099 38.952V47.4C100.099 47.576 100.035 47.72 99.9073 47.832C99.7953 47.944 99.6513 48 99.4753 48H96.4273ZM112.188 48C112.06 48 111.94 47.952 111.828 47.856C111.732 47.744 111.684 47.624 111.684 47.496C111.684 47.4 111.692 47.328 111.708 47.28L117.3 31.896C117.46 31.432 117.78 31.2 118.26 31.2H122.004C122.484 31.2 122.804 31.432 122.964 31.896L128.556 47.28C128.572 47.328 128.58 47.4 128.58 47.496C128.58 47.624 128.524 47.744 128.412 47.856C128.316 47.952 128.204 48 128.076 48H124.956C124.572 48 124.3 47.824 124.14 47.472L123.276 45.144H116.988L116.124 47.472C115.964 47.824 115.692 48 115.308 48H112.188ZM117.996 41.544H122.268L120.132 35.424L117.996 41.544ZM130.998 48C130.838 48 130.694 47.944 130.566 47.832C130.454 47.704 130.398 47.56 130.398 47.4V31.8C130.398 31.624 130.454 31.48 130.566 31.368C130.694 31.256 130.838 31.2 130.998 31.2H134.358C134.534 31.2 134.678 31.256 134.79 31.368C134.902 31.48 134.958 31.624 134.958 31.8V44.232H142.158C142.334 44.232 142.478 44.296 142.59 44.424C142.718 44.536 142.782 44.68 142.782 44.856V47.4C142.782 47.576 142.718 47.72 142.59 47.832C142.478 47.944 142.334 48 142.158 48H130.998ZM151.148 48.24C149.596 48.24 148.276 48.016 147.188 47.568C146.1 47.12 145.276 46.528 144.716 45.792C144.156 45.056 143.86 44.256 143.828 43.392C143.828 43.248 143.876 43.128 143.972 43.032C144.084 42.936 144.212 42.888 144.356 42.888H147.548C147.74 42.888 147.892 42.92 148.004 42.984C148.132 43.048 148.268 43.16 148.412 43.32C148.62 43.704 148.94 44.024 149.372 44.28C149.82 44.52 150.412 44.64 151.148 44.64C152.012 44.64 152.676 44.512 153.14 44.256C153.604 43.984 153.836 43.616 153.836 43.152C153.836 42.816 153.716 42.544 153.476 42.336C153.236 42.112 152.852 41.92 152.324 41.76C151.796 41.584 151.036 41.392 150.044 41.184C148.108 40.8 146.66 40.216 145.7 39.432C144.74 38.648 144.26 37.528 144.26 36.072C144.26 35.08 144.532 34.2 145.076 33.432C145.636 32.648 146.42 32.04 147.428 31.608C148.452 31.176 149.636 30.96 150.98 30.96C152.388 30.96 153.604 31.208 154.628 31.704C155.668 32.184 156.46 32.792 157.004 33.528C157.564 34.248 157.86 34.96 157.892 35.664C157.892 35.808 157.844 35.936 157.748 36.048C157.652 36.144 157.532 36.192 157.388 36.192H154.028C153.676 36.192 153.404 36.048 153.212 35.76C153.116 35.424 152.868 35.144 152.468 34.92C152.068 34.68 151.572 34.56 150.98 34.56C150.308 34.56 149.788 34.68 149.42 34.92C149.052 35.16 148.868 35.512 148.868 35.976C148.868 36.44 149.108 36.808 149.588 37.08C150.068 37.336 150.964 37.6 152.276 37.872C153.78 38.144 154.972 38.488 155.852 38.904C156.748 39.304 157.404 39.832 157.82 40.488C158.252 41.128 158.468 41.944 158.468 42.936C158.468 44.024 158.156 44.968 157.532 45.768C156.908 46.568 156.044 47.184 154.94 47.616C153.836 48.032 152.572 48.24 151.148 48.24Z" fill="#2DAFD7"/>
  </symbol>
  <symbol id="form-name" viewBox="0 0 24 21" width="24" height="21" fill="none">
    <path d="M16.7251 5.31861C16.7251 7.96804 14.5189 10.1372 11.7706 10.1372C9.0223 10.1372 6.81604 7.96804 6.81604 5.31861C6.81604 2.66919 9.0223 0.5 11.7706 0.5C14.5189 0.5 16.7251 2.66919 16.7251 5.31861Z" stroke="#99BBC6"/>
    <path d="M0.515071 19.536H0.505463C0.490683 19.4336 0.500931 19.2345 0.595637 18.9295C0.8013 18.2671 1.33627 17.3276 2.24899 16.364C4.06159 14.4504 7.30743 12.5028 12.1635 12.5C17.0182 12.4972 20.1492 14.4433 21.8494 16.3487C22.7063 17.3091 23.1875 18.2449 23.356 18.9035C23.4402 19.2325 23.4329 19.4393 23.4064 19.536H23.4002H23.388H23.3753H23.3623H23.3489H23.3351H23.3208H23.3062H23.2913H23.2759H23.2601H23.244H23.2275H23.2106H23.1933H23.1757H23.1577H23.1393H23.1205H23.1014H23.0819H23.062H23.0418H23.0212H23.0002H22.9789H22.9572H22.9352H22.9128H22.8901H22.867H22.8435H22.8198H22.7956H22.7711H22.7463H22.7211H22.6956H22.6698H22.6436H22.6171H22.5902H22.563H22.5355H22.5076H22.4794H22.4509H22.4221H22.3929H22.3635H22.3337H22.3035H22.2731H22.2424H22.2113H22.1799H22.1482H22.1162H22.0839H22.0513H22.0184H21.9852H21.9517H21.9178H21.8837H21.8493H21.8146H21.7796H21.7443H21.7087H21.6728H21.6367H21.6002H21.5635H21.5264H21.4892H21.4516H21.4137H21.3756H21.3372H21.2985H21.2596H21.2203H21.1808H21.1411H21.1011H21.0608H21.0202H20.9794H20.9384H20.8971H20.8555H20.8136H20.7716H20.7292H20.6866H20.6438H20.6007H20.5574H20.5138H20.47H20.426H20.3817H20.3372H20.2924H20.2474H20.2022H20.1567H20.1111H20.0651H20.019H19.9726H19.9261H19.8793H19.8322H19.785H19.7375H19.6899H19.642H19.5939H19.5456H19.4971H19.4483H19.3994H19.3503H19.301H19.2514H19.2017H19.1518H19.1016H19.0513H19.0008H18.9501H18.8992H18.8481H18.7969H18.7454H18.6938H18.642H18.59H18.5378H18.4854H18.4329H18.3802H18.3273H18.2743H18.2211H18.1677H18.1142H18.0605H18.0066H17.9526H17.8984H17.844H17.7895H17.7349H17.68H17.6251H17.57H17.5147H17.4593H17.4037H17.348H17.2922H17.2362H17.1801H17.1238H17.0674H17.0109H16.9543H16.8975H16.8405H16.7835H16.7263H16.669H16.6116H16.5541H16.4964H16.4386H16.3807H16.3227H16.2646H16.2063H16.148H16.0895H16.031H15.9723H15.9135H15.8546H15.7957H15.7366H15.6774H15.6181H15.5588H15.4993H15.4397H15.3801H15.3204H15.2606H15.2006H15.1407H15.0806H15.0204H14.9602H14.8999H14.8395H14.7791H14.7185H14.6579H14.5973H14.5365H14.4757H14.4149H14.3539H14.2929H14.2319H14.1708H14.1096H14.0484H13.9871H13.9258H13.8644H13.803H13.7415H13.68H13.6184H13.5568H13.4952H13.4335H13.3717H13.31H13.2482H13.1864H13.1245H13.0626H13.0007H12.9387H12.8768H12.8148H12.7527H12.6907H12.6287H12.5666H12.5045H12.4424H12.3803H12.3181H12.256H12.1938H12.1317H12.0695H12.0074H11.9452H11.8831H11.8209H11.7587H11.6966H11.6344H11.5723H11.5102H11.4481H11.3859H11.3239H11.2618H11.1997H11.1377H11.0757H11.0137H10.9517H10.8898H10.8278H10.7659H10.7041H10.6422H10.5804H10.5187H10.457H10.3953H10.3336H10.272H10.2105H10.1489H10.0875H10.026H9.96465H9.90332H9.84204H9.78082H9.71965H9.65854H9.59749H9.5365H9.47556H9.4147H9.35389H9.29316H9.23249H9.17189H9.11136H9.05091H8.99052H8.93022H8.86999H8.80984H8.74977H8.68979H8.62988H8.57006H8.51033H8.45069H8.39114H8.33167H8.27231H8.21303H8.15386H8.09478H8.0358H7.97692H7.91814H7.85947H7.8009H7.74244H7.68409H7.62585H7.56773H7.50971H7.45181H7.39403H7.33637H7.27883H7.2214H7.1641H7.10693H7.04988H6.99296H6.93617H6.87951H6.82298H6.76659H6.71033H6.65421H6.59823H6.54239H6.48669H6.43114H6.37573H6.32047H6.26535H6.21039H6.15558H6.10092H6.04641H5.99206H5.93787H5.88384H5.82997H5.77626H5.72272H5.66934H5.61613H5.56309H5.51021H5.45751H5.40499H5.35264H5.30046H5.24847H5.19665H5.14502H5.09357H5.0423H4.99122H4.94033H4.88963H4.83912H4.7888H4.73867H4.68874H4.63901H4.58948H4.54014H4.49101H4.44209H4.39336H4.34485H4.29654H4.24844H4.20056H4.15289H4.10543H4.05819H4.01116H3.96436H3.91778H3.87142H3.82528H3.77937H3.73369H3.68823H3.64301H3.59801H3.55326H3.50873H3.46445H3.4204H3.37659H3.33302H3.2897H3.24662H3.20379H3.1612H3.11887H3.07678H3.03495H2.99337H2.95205H2.91098H2.87018H2.82963H2.78935H2.74933H2.70957H2.67008H2.63086H2.59191H2.55324H2.51483H2.4767H2.43884H2.40127H2.36397H2.32695H2.29022H2.25377H2.21761H2.18173H2.14614H2.11084H2.07584H2.04113H2.00671H1.97259H1.93877H1.90524H1.87202H1.83911H1.80649H1.77419H1.74219H1.7105H1.67912H1.64805H1.6173H1.58687H1.55675H1.52695H1.49747H1.46831H1.43948H1.41097H1.38278H1.35493H1.32741H1.30021H1.27335H1.24683H1.22064H1.19479H1.16928H1.14411H1.11928H1.0948H1.07066H1.04687H1.02342H1.00033H0.977592H0.955206H0.933174H0.9115H0.890184H0.869227H0.848633H0.828401H0.808534H0.789032H0.769899H0.751135H0.732742H0.714722H0.697075H0.679805H0.662911H0.646396H0.630262H0.61451H0.599141H0.584157H0.56956H0.555352H0.541533H0.528105H0.515071Z" fill="white" stroke="#99BBC6"/>
  </symbol>
  <symbol id="form-email" viewBox="0 0 24 18" width="24" height="18" fill="none">
    <rect x="0.5" y="0.5" width="22.4" height="17" stroke="#99BBC6"/>
    <path d="M0.900024 0.449951L12.15 12.15L22.5 0.449951" stroke="#99BBC6"/>
  </symbol>
  <symbol id="form-phone" viewBox="0 0 20 20" width="20" height="20" fill="none">
    <path d="M4.0376 13.1537C6.01025 15.4868 8.38489 17.3237 11.0952 18.6235C12.1271 19.1073 13.5071 19.6814 15.0446 19.7798C15.14 19.7839 15.2311 19.788 15.3265 19.788C16.3584 19.788 17.1872 19.4353 17.8627 18.7096C17.8669 18.7055 17.8751 18.6973 17.8793 18.6891C18.1197 18.4021 18.3932 18.1437 18.6791 17.869C18.8739 17.6845 19.0728 17.4918 19.2635 17.295C20.1462 16.3847 20.1462 15.2284 19.2552 14.3469L16.7645 11.8826C16.3418 11.448 15.8362 11.2184 15.3057 11.2184C14.7753 11.2184 14.2655 11.448 13.8304 11.8785L12.3468 13.3464C12.21 13.2685 12.0691 13.1988 11.9365 13.1332C11.7707 13.0512 11.6174 12.9733 11.4806 12.8872C10.1296 12.0384 8.90292 10.9314 7.7301 9.50855C7.13748 8.7664 6.73963 8.14316 6.46197 7.50762C6.85153 7.15909 7.21622 6.79417 7.56848 6.43744C7.6928 6.31033 7.82127 6.18323 7.94975 6.05612C8.39732 5.61329 8.63769 5.10075 8.63769 4.58002C8.63769 4.05928 8.40147 3.54674 7.94975 3.10391L6.71477 1.88203C6.56972 1.73852 6.43296 1.59911 6.29206 1.4556C6.01854 1.17678 5.73259 0.889761 5.45078 0.631444C5.02393 0.217315 4.52248 0 3.99202 0C3.4657 0 2.96011 0.217315 2.51668 0.635544L0.966738 2.16905C0.403124 2.72669 0.0840195 3.40323 0.017712 4.18639C-0.0610281 5.16636 0.121318 6.20783 0.593758 7.46661C1.319 9.41425 2.41307 11.2225 4.0376 13.1537ZM1.0289 4.27249C1.07863 3.72716 1.28999 3.27203 1.68783 2.8784L3.22948 1.35309C3.46985 1.12348 3.73508 1.00457 3.99202 1.00457C4.24481 1.00457 4.50176 1.12348 4.73798 1.36129C5.01564 1.61551 5.27673 1.88203 5.55853 2.16495C5.69944 2.30846 5.84448 2.45197 5.98953 2.59958L7.22451 3.82146C7.48145 4.07568 7.61406 4.334 7.61406 4.58822C7.61406 4.84243 7.48145 5.10075 7.22451 5.35497C7.09604 5.48208 6.96757 5.61329 6.8391 5.7404C6.45368 6.12582 6.09314 6.49075 5.69529 6.83927C5.687 6.84747 5.68286 6.85157 5.67457 6.85977C5.3306 7.2001 5.38447 7.52402 5.46736 7.77004C5.4715 7.78234 5.47565 7.79054 5.47979 7.80284C5.7989 8.56139 6.24233 9.28304 6.93441 10.1441C8.17768 11.6612 9.48725 12.838 10.9294 13.7441C11.1076 13.859 11.2983 13.9492 11.4765 14.0394C11.6422 14.1214 11.7956 14.1993 11.9323 14.2854C11.9489 14.2936 11.9613 14.3018 11.9779 14.31C12.1147 14.3797 12.2473 14.4125 12.3799 14.4125C12.7115 14.4125 12.927 14.2034 12.9974 14.1337L14.5473 12.6002C14.7877 12.3624 15.0488 12.2352 15.3057 12.2352C15.6207 12.2352 15.8776 12.428 16.0393 12.6002L18.5382 15.0685C19.0355 15.5606 19.0314 16.0936 18.5258 16.6143C18.3517 16.7989 18.1694 16.9752 17.9746 17.1597C17.6845 17.4385 17.382 17.7255 17.1085 18.0494C16.6319 18.5579 16.0641 18.7957 15.3306 18.7957C15.2601 18.7957 15.1856 18.7916 15.1151 18.7875C13.7558 18.7014 12.4918 18.1766 11.5428 17.7296C8.96508 16.4954 6.70234 14.7446 4.82501 12.5223C3.27921 10.6812 2.23901 8.96732 1.55107 7.13039C1.12422 6.00281 0.962594 5.09665 1.0289 4.27249Z" fill="#99BBC6"/>
  </symbol>
  <symbol id="arrow" viewBox="0 0 299 368" fill="none">
    <path d="M33.4316 342.942L41.5534 350.548C40.9598 351.108 40.3659 351.001 39.6532 350.872L33.3578 349.853L33.1684 361.08C32.8892 362.885 31.7342 363.163 29.7955 361.717L2.58616 340.982L2.58374 340.981C0.18355 339.155 0.276988 337.468 1.81393 337.021L35.3128 327.704C37.6096 327.08 38.7046 328.261 37.9738 329.954L34.6222 337.745L10.4911 338.88C9.32553 338.903 9.06103 339.748 10.0699 339.874L33.4316 342.942Z" fill="#2DAFD7"/>
    <path d="M239 1C258.5 17.3333 294.767 60.7936 298 107.5C303.921 193.048 249.36 241.895 180.5 293C123.374 335.397 87.3333 338 49 345" stroke="#2DAFD7" stroke-dasharray="10 20"/>
  </symbol>
</svg>
